<svg xmlns="http://www.w3.org/2000/svg" width="768" height="768" style="shape-rendering:geometricPrecision;text-rendering:geometricPrecision;image-rendering:optimizeQuality;fill-rule:evenodd;clip-rule:evenodd"><path fill="#476c71" d="M84 67h604c7 2 11 6 13 14v602c-2 7-6 11-13 13H84c-8-2-12-6-14-13V81c2-8 7-12 14-14Z" style="opacity:1"/><path fill="#b7ecf0" d="M539 115c3-1 4 1 4 4-4 0-5-2-4-4Z" style="opacity:1"/><path fill="#a1b4b7" d="M272 129c-1-6-3-7-7-3 2-6 4-6 7 0v3Z" style="opacity:1"/><path fill="#a9d5d8" d="m547 120 7 2c1 2 1 3-1 5l-6-7Z" style="opacity:1"/><path fill="#bbcac0" d="m493 140-5 7a803 803 0 0 0-7 9c-2 2-4 1-4-1l-1 1c-1-3-3-4-5-5l-2 2-2-4c-20-8-39-14-59-18h-40l-35 8-30 11c-2 1-3 2-4 5-2-1-4-1-5 1-5-3-8-7-9-11v3c-1-4-4-6-7-5v-4l5 4c0-2 1-3 4-4 68-29 136-28 203 3 0-2 1-3 2-3l1 1Z" style="opacity:1"/><path fill="#9dcfd4" d="m557 127 2 1c1 5-1 6-3 1l1-2Z" style="opacity:1"/><path fill="#263437" d="M272 129v5l-2-4h-1v4c-5 0-5 2-2 5h-2l-1-1c0-3-1-5-3-5h-4v3l-3 1c-3-2-5-4-5-6l-2-4 5-2 2 1 3 2 4 1 4-3c4-4 6-3 7 3Z" style="opacity:1"/><path fill="#c6d1d2" d="m254 126 1-1 5 1c-2 0-3 1-3 2l-3-2Z" style="opacity:1"/><path fill="#1e272a" d="m518 131-6 3v4l-4 1-2-2-4 2 2 6h-5l-6 6c-1-2-2-3-1-4h-4l5-7c2-3 5-5 9-6-3-8-1-10 7-6l3-2c3 2 5 3 9 2l2 1-5 2Z" style="opacity:1"/><path fill="#87a8ab" d="M249 131c0 2 2 4 5 6l-8 2c-5-5-4-7 3-8Z" style="opacity:1"/><path fill="#acdee2" d="m563 133 2 1 2 7c-5-1-7-4-4-8Z" style="opacity:1"/><path fill="#89afb4" d="M264 138c-3 2-6 1-7-2v-3h4c2 0 3 2 3 5Z" style="opacity:1"/><path fill="#c9d4c8" d="M484 152c-2 1-3 3-3 6-2 0-4 2-5 4l-5 11-3 2-6 9v5h-3l-5 12-9 9-11-8c-2-1-4-3-4-5-2-3-4-4-6-5-28-9-55-9-82 2l-2-1-5 10-12 9-2-8-3-2-4-9c-1-2-3-4-5-4 1-5 0-7-4-7 0-6-2-9-7-11 1-7-1-10-7-10 0-5-1-9-5-10l-1-3v-3c1 4 4 8 9 11 1-2 3-2 5-1 1-3 2-4 4-5l30-11 35-8h40c20 4 39 10 59 18l2 4 2-2c2 1 4 2 5 5l1-1c0 2 2 3 4 1v-3c1-2 2-2 3-1Z" style="opacity:1"/><path fill="#b9d6da" d="M240 135c3 1 3 3 1 5h-4l-1-2c1-2 2-3 4-3Z" style="opacity:1"/><path fill="#95c0c5" d="m518 131 3 5-9 2v-4l6-3Z" style="opacity:1"/><path fill="#95c0c3" d="m524 132 9 4 1 4-10-3c-2-2-2-4 0-5Z" style="opacity:1"/><path fill="#a9bbbd" d="M265 139h2l2 1-1 5-3-6Z" style="opacity:1"/><path fill="#b3dfe3" d="M231 140c5 1 5 3 0 6-3-3-3-5 0-6Z" style="opacity:1"/><path fill="#b4e0e4" d="M536 139c4-1 6 1 6 5-4 0-6-2-6-5Z" style="opacity:1"/><path fill="#b7eef2" d="M224 144h3c-1 5-3 6-6 2l3-2Z" style="opacity:1"/><path fill="#a2ced1" d="m545 142 6 3c-2 4-4 5-7 2l1-5Z" style="opacity:1"/><path fill="#abe4e7" d="M215 148h5c-1 2-2 4-5 4v-4Z" style="opacity:1"/><path fill="#92c7cc" d="M554 146c4 0 5 2 4 5-5 0-6-2-4-5Z" style="opacity:1"/><path fill="#98c5ca" d="M565 143h3l-2 12-3 1c0-5 0-9 2-13Z" style="opacity:1"/><path fill="#bbcabf" d="M508 139c-1-1-2 0-3 1v6c54 34 94 81 119 140 23 57 23 115 1 173l-1-2c8-20 12-42 14-63l-1 1-1-6c-1 11-4 22-7 34-2-1-3 0-3 2 2 1 2 4 2 7l-1-2c-2 4-3 8-1 12-4 1-5 4-3 7-4 3-5 6-4 11l-3 1c0 5-2 10-7 13l-2 5c-5 1-5 2-2 6l-3 1c-4 5-8 10-10 15l2 2-4 2c0 2 1 3 3 2 8-10 16-20 22-31l1 2c-8 12-16 24-27 35l-2 5c2 1 3 2 2 4-2-2-4-4-4-6-2-7-3-14-2-21l1 6v-15c0-2 1-2 2 0 0-5 1-5 2-1l2-7h2l1 3 14-23a333 333 0 0 0 23-85c-12-87-54-156-126-207l3-1-6-3-2 1-2-4c-3 1-5 0-6-2 3-2 3-3-1-2l4-2-1-2 6-6h5l-2-6 4-2 2 2Z" style="opacity:1"/><path fill="#dae4df" d="m265 149-36 29a338 338 0 0 1 36-29Z" style="opacity:1"/><path fill="#c9d3c8" d="M284 160c0 2 2 4 5 6 0 4 2 7 6 8-1 3 0 5 3 7l1 6 5 2v6c1-1 3 0 4 2-1 1-2 3-1 5 5-2 7 0 7 6l5 2-4 4c0 2 1 3 3 5-15 13-27 29-36 48l-7 23c-1 7 0 15 2 23-2 8-6 9-12 5-8-5-15-10-20-16l-3 1-1-1c2-5 2-6-2-1l-1-1c-1 3-2 3-4 1v4l-34 27 4 1c-1 1 0 3 1 5l7 11 3 8-4-3 1 2-2 1v2c2 1 2 2 0 4l-3-3-9 9-10 18-1 13 2 2c-2 1-2 2 0 3-3 0-3 1-1 3 1-2 2-2 4 0 0-2 1-3 3-4-4-2-5-5-3-8 1 1 2 2 3 1l5 5-5 8h-4c-6 4-12 7-17 12l-2-2-1 5 1 1 3-3 6-1c1 1 0 3-1 4l3 1c-2 1-3 3-2 5h3l-2 6 3 2c-2 1-3 3-3 5 2 1 2 4 0 8l2 2c-2 2-2 4-1 7l2-3-1 8c1 1 1 0 2-1 1 2 1 4-1 6l3 1-2 5 4 1a514 514 0 0 0-6 5v-3l-7-3c-9-9-14-20-17-31-4-6-6-13-8-19l-1 1c0-5-1-10-3-14l1-2c-5-14-7-27-6-40 6-48 22-91 48-130 8-11 17-21 27-29 14-16 29-31 46-43l4-5c0-2 1-2 2 0 0-2 1-3 2-1 1-3 2-3 3 0 1-2 2-3 1-4 1 3 4 5 8 5v-6Z" style="opacity:1"/><path fill="#c9d4c8" d="M490 155c4-1 4 0 1 2 1 2 3 3 6 2l2 4 2-1 6 3-3 1c72 51 114 120 126 207a333 333 0 0 1-23 85l-14 23-1-3h-2l-2 7c-1-4-2-4-2 1-1-2-2-2-2 0v15l-1-6-1-9 1-3h3c-2-3-3-6-2-9 2 0 3-1 1-2v-6c1 1 2 2 4 1-3-2-4-5-3-8 1 1 2 2 4 1-3-2-4-5-3-7h3c-3-2-3-5-3-7h3l-3-6c0-2 1-3 3-2-3-4-3-7 0-10-2-4-1-6 2-6 2 0 5 1 8 4l1-4c-7-2-13-5-18-10-4-1-7-3-10-6-5-11-10-21-17-29-6-5-12-7-18-8l5-1c-18-2-35-2-52 0l-6-19a1722 1722 0 0 1 56-5l10 14 3-2 6-15 7-9h3l-31-28v-5c-2 2-3 2-4 0-1 1-3 2-4 1v3h-4l-21 18h-7c0 2-2 3-4 3 1-1 0-2-1-3l2-1-3-3 4-6a624 624 0 0 1-2-32l-9-19c1-3 0-4-2-5v-3l-5-7-2-2 1-1c-4-2-7-6-9-9v1l-14-14 1-5-4-4c3-2 4-5 5-8 5-1 7-3 5-8 5 0 6-3 4-7 5 0 7-3 6-8l4-1 1-6c4-1 6-3 6-7 1-3 3-6 6-7l1-4Z" style="opacity:1"/><path fill="#090e12" d="M272 134h3c-1 2 0 4 3 5v4c3-1 6 1 7 5l1 3c4 1 5 5 5 10 6 0 8 3 7 10 5 2 7 5 7 11 4 0 5 2 4 7 2 0 4 2 5 4l4 9 3 2 2 8 12-9 5-10 2 1c27-11 54-11 82-2 2 1 4 2 6 5 0 2 2 4 4 5l11 8 9-9 5-12h3v-5l6-9 3-2 5-11c1-2 3-4 5-4a803 803 0 0 1 7-11h4c-1 1 0 2 1 4l1 2-4 2-1 4c-3 1-5 4-6 7 0 4-2 6-6 7l-1 6-4 1c1 5-1 8-6 8 2 4 1 7-4 7 2 5 0 7-5 8-1 3-2 6-5 8l4 4-1 5 14 14c12 16 20 35 25 56v16l-4 14h-5l-85-1a3354 3354 0 0 0-119-1l-4-5c-2-8-3-16-2-23l7-23c9-19 21-35 36-48-2-2-3-3-3-5l4-4-5-2c0-6-2-8-7-6-1-2 0-4 1-5-1-2-3-3-4-2v-6l-5-2-1-6c-3-2-4-4-3-7-4-1-6-4-6-8-3-2-5-4-5-6l-8-11h-4c0-3-2-4-4-4l1-5-2-1c-3-3-3-5 2-5v-4h1l2 4Z" style="opacity:1"/><path fill="#b1c1b7" d="m269 147 4 4c-1 2-2 5-1 7-2 0-4 1-5 3l-1-1-5 4-1-1-2 3c-1-2-2-2-3-1-2 1-2 1 0 2l-3 1-2 4h-3l-3 5c-3 1-5 2-7 5l-8 13-14 13-16 12c-2 5-5 6-8 3-1 3-3 4-6 5 0-3 0-5 2-6 13-15 27-30 42-44a525 525 0 0 0 40-31Z" style="opacity:1"/><path fill="#171718" d="M298 315h92l-1-56-5-10 2-8 2-1 3-14 1 2c4-2 9-2 14-1l15 4 15 23a4965 4965 0 0 0 6 34c-3 6-4 13-4 21-3 1-5 3-6 5l-4 2-24 1-106-2Z" style="opacity:1"/><path fill="#2e3c3f" d="M385 241h1l-2 8 5 10 1 56h-92l-16-5-3-4v-16c5-26 17-47 36-65 1-1 3-3 6-3 3 1 4 1 3-2 0-3 1-5 3-6l23-17c13 2 24 7 34 17 3 6 4 13 4 21-5 0-7 2-4 7l1-1Z" style="opacity:1"/><path fill="#cddce0" d="m388 240-2 1h-1c-2-3-2-4 1-5l2 4Z" style="opacity:1"/><path fill="#cddede" d="M506 321c-4 2-8 5-11 9l-3-7-6 1c-1-2 0-3 1-4h3l4-14v-16c-5-21-13-40-25-56v-1c2 3 5 7 9 9l-1 1 2 2 5 7v3c2 1 3 2 2 5l9 19-1 3 2 10 1 19-4 6 3 3-2 1c1 1 2 2 1 3 2 0 4-1 4-3h7Z" style="opacity:1"/><path fill="#c8d6cc" d="m332 224 5-3c12-4 23-1 33 8 4 8 2 14-6 18-15 6-28 3-39-8-1-7 1-12 7-15Z" style="opacity:1"/><path fill="#d1e4e7" d="M379 244c2 0 3 1 3 4-4 0-5-2-3-4Z" style="opacity:1"/><path fill="#101215" d="M332 224c-6 3-8 8-7 15 11 11 24 14 39 8 8-4 10-10 6-18-10-9-21-12-33-8-2 0-3-1-1-2 11-5 22-3 32 4 8 7 9 14 3 23-18 12-34 10-48-5-1-5-1-9 1-13l6-5c0-1 1-1 2 1Z" style="opacity:1"/><path fill="#912b15" d="M468 293c-4-1-7-2-9-4-6-5-10-10-12-16-1-5 0-10 2-14 1-2 3-3 6-2 8 6 13 14 15 25v8l-2 3Z" style="opacity:1"/><path fill="#ac3418" d="M449 259c-2 4-3 9-2 14 2 6 6 11 12 16 2 2 5 3 9 4l-4 2c-7-2-12-5-15-11s-4-11-5-17c0-4 1-7 5-8Z" style="opacity:1"/><path fill="#101214" d="M316 255c13 0 18 6 13 20-4 9-10 16-19 21-9 2-13-2-13-10 1-14 7-24 19-31Z" style="opacity:1"/><path fill="#c6d8cf" d="M316 257c10-1 14 4 11 15l-11 17c-4 3-9 4-13 4-3-2-5-5-4-8 1-12 7-22 17-28Z" style="opacity:1"/><path fill="#f3f9f8" d="M538 369Z" style="opacity:1"/><path fill="#c0cec3" d="M237 369c-12 0-22 5-28 16l-8 17h-1l-5-5c-1 1-2 0-3-1-2 3-1 6 3 8-2 1-3 2-3 4-2-2-3-2-4 0-2-2-2-3 1-3-2-1-2-2 0-3l-2-2 1-13 10-18 9-9 3 3c2-2 2-3 0-4v-2l2-1-1-2 4 3c1-1 3 0 4 1 3-5 7-10 11-13l1-4 51 8-4 21c-14-1-28-2-41-1Z" style="opacity:1"/><path fill="#466b6f" d="M210 408h-7c0-4 1-7 3-10 2-6 5-11 9-15 3-4 7-7 11-9 14-2 28-2 43-1-15 13-30 24-47 32l-12 3Z" style="opacity:1"/><path fill="#bccbc1" d="M268 145c2 0 4 1 4 4h4l8 11v6c-4 0-7-2-8-5 1 1 0 2-1 4-1-3-2-3-3 0-1-2-2-1-2 1-1-2-2-2-2 0l-4 5c-17 12-32 27-46 43-10 8-19 18-27 29-26 39-42 82-48 130-1 13 1 26 6 40l-1 2c2 4 3 9 3 14l1-1c2 6 4 13 8 19 3 11 8 22 17 31l7 3v3l3-1h4l-1 6c2 2 2 4 0 7l2 2-2 7c1 3 0 7-2 10l2 2-2 5-4-7c-28-28-45-62-51-100a258 258 0 0 1 54-193c-2 1-2 3-2 6 3-1 5-2 6-5 3 3 6 2 8-3l16-12 14-13 8-13c2-3 4-4 7-5l3-5h3l2-4 3-1c-2-1-2-1 0-2 1-1 2-1 3 1l2-3 1 1 5-4 1 1c1-2 3-3 5-3-1-2 0-5 1-7l-4-4-1-2Z" style="opacity:1"/><path fill="#152024" d="M237 369v3h34v4l1-1 1 3-3 5c-9 9-20 18-31 25-7 3-13 4-20 4l-8 3-7-4c3-2 6-3 10-3h-4l12-3c17-8 32-19 47-32-15-1-29-1-43 1-4 2-8 5-11 9-4 4-7 9-9 15-2 1-3 2-4 5l-1-1 8-17c6-11 16-16 28-16Z" style="opacity:1"/><path fill="#a9bcb3" d="m625 459-9 19-1-2c-6 11-14 21-22 31-2 1-3 0-3-2l4-2-2-2c2-5 6-10 10-15l3-1c-3-4-3-5 2-6l2-5c5-3 7-8 7-13l3-1c-1-5 0-8 4-11-2-3-1-6 3-7-2-4-1-8 1-12l1 2c0-3 0-6-2-7 0-2 1-3 3-2 3-12 6-23 7-34l1 6 1-1c-2 21-6 43-14 63l1 2Z" style="opacity:1"/><path fill="#0a0e12" d="m466 600-11 13c-2-2-3-2-3 1v-4l9-10v-3a279 279 0 0 0 6-8c-2-4-1-6 4-5-1-3 0-6 3-7l-1-3 5-5c-6-2-5-4 0-5 1-2 0-4-1-5l4-1c1-2 0-4-1-5l4-4c-2-2-2-3 0-5-3-6-6-13-10-18l-5-19a907 907 0 0 0 22-27c3 0 5 1 6 5v8l6 19-8 23 1 5h-3a261 261 0 0 1-19 51l-8 9Z" style="opacity:1"/><path fill="#c9d4c8" d="m578 517-2 1c1-3 1-5-1-7l2-4-3-11-2 3c-1 2 0 3 2 5l-4 8h3l-2 4-1-1c-4 1-7 3-10 6l-23 27-29 25-22 11-2-2-3 6c-3-2-5-1-6 3l2 3h-3v11l2 1c2-2 5-3 9-3l-5 3-13 5 6-6-7-5 7-9a261 261 0 0 0 20-51h3l-1-5 8-23a1218 1218 0 0 0-12-36l-22 31 5 19c4 5 7 12 10 18-2 2-2 3 0 5l-4 4c1 1 2 3 1 5l-4 1c1 1 2 3 1 5-5 1-6 3 0 5l-5 5 1 3c-3 1-4 4-3 7-5-1-6 1-4 5-2 1-2 2-2 4-2-2-3-2-4 0-1-1 0-2 1-3-3-2-4-2-4 2-5 1-6 4-2 7-3 2-5 2-7 1-2 2-4 2-7 1l-2 2-14 2-8 3-1-1c-4 3-8 4-13 3l-8 4-2-2-21 1-13-2-4-2-2 1-12-3-2 1-6-4h-2l-9-6h-2v-2c-1-2-1-2-2 0l-2-3-1 1-4-4h-3c-1 0-2 1-1 3a1988 1988 0 0 1 7 10c-3-3-6-6-7-9l-2-7c-2-1-3-2-4-1l-1-5c-4-2-4-5 0-7-4 0-7-2-7-6l4-1-6-5 2-3-5-4 2-2c-3-3-4-6-4-9 3-7 6-13 10-18l6-19c-7-12-15-22-24-31l-5 8c-1 10-3 19-7 29l8 20v6c3 0 5 3 4 6 2 3 3 6 3 10 5 8 8 16 11 26l3 3c-1 4-1 4-1 0l-9-2c-1 0-2 1-2 3-2-3-5-4-8-4l-15-12c-1 3-1 3-2 0l-10-7c-2 2-4 1-4-2l1-1a2247 2247 0 0 1-27-28l2-1c-2 0-2-1-3-2l-1 2c-3-6-8-11-13-14l-4 4-2 6-1-9v-31c0-6 1-11 5-15v-8l2-2c-2-2-2-4-1-6 3 0 3-1 0-3v-7l3-1-3-3 1-14c1-2 1-4 3-5-2-2-2-4 0-5 4 3 8 7 14 9l2 5 7 1 48-40a3979 3979 0 0 0 12 65l11 25c1-1 2 0 3 1 16 27 41 42 75 44 12 0 25-1 38-4l21-9c15-12 27-26 35-43 1-6 3-11 6-15l8-35 4-29 3 3 3-1 40 37c3 2 6 2 10-1 2-4 5-6 10-7l9-7v3c2 2 2 3 0 5 4 1 5 4 2 8l2 2c-2 2-2 4 0 7l-3 3c3 2 3 4 2 7l2 2-2 9v2c1-2 2-2 3 0v7l2 2-1 2c1 2 2 4 1 6l3 1v21c2 2 2 5 0 8l2 2c-1 1-2 2-1 4Z" style="opacity:1"/><path fill="#1c2527" d="M585 516c0 2 2 4 4 6l-2 4 5 8c0 2 2 4 5 5l1 2-6-1c-1 0-2 1-1 3l-5-1-2-8-3-4c-4 1-5-1-5-4v-8l2-1v1l2-3c1 2 2 2 2-1l2 4 1-2Z" style="opacity:1"/><path fill="#bccbc1" d="M296 584c5 11 12 20 22 29l-1 2c-25-8-50-20-72-34-17-12-31-26-42-42l-5-11v-2l2-6 4-4c5 3 10 8 13 14l1-2c1 1 1 2 3 2l-2 1 12 15a2247 2247 0 0 0 14 14c0 3 2 4 4 2l10 7c1 3 1 3 2 0l15 12c3 0 6 1 8 4 0-2 1-3 2-3l9 2c0 4 0 4 1 0Z" style="opacity:1"/><path fill="#090e12" d="m265 318 13 11 1-4h23v1c-2 0-3 0-4 2-7 10-12 21-13 34a71 71 0 0 0-1 30c0 16 2 32 6 48 4 12 10 24 17 36 6 7 13 11 23 13l-1-1h1l5 3c9 11 21 17 36 20 8 2 17 2 27 0 16-1 29-8 41-18l3-6-2-163h46l6-1 3 7c3-4 7-7 11-9l21-18h4v-3c1 1 3 0 4-1 1 2 2 2 4 0v5a988 988 0 0 0 28 28l-7 9-6 15-3 2a4244 4244 0 0 0-13-16l-53 7 6 19c15-1 31 0 47 1 6 1 12 3 18 8 7 8 12 18 17 29 3 3 6 5 10 6 5 5 11 8 18 10l-1 4c-3-3-6-4-8-4-3 0-4 2-2 6-3 3-3 6 0 10-2-1-3 0-3 2l3 6h-3c0 2 0 5 3 7h-3c-1 2 0 5 3 7-2 1-3 0-4-1-1 3 0 6 3 8-2 1-3 0-4-1v6c2 1 1 2-1 2-1 3 0 6 2 9h-3l-1 3 1 9c-1 7 0 14 2 21l-1 2-2-4c0 3-1 3-2 1l-2 3v-1c-1-2 0-3 1-4l-2-2c2-3 2-6 0-8v-21l-3-1c1-2 0-4-1-6l1-2-2-2v-7c-1-2-2-2-3 0v-2l2-9-2-2c1-3 1-5-2-7l3-3c-2-3-2-5 0-7l-2-2c3-4 2-7-2-8 2-2 2-3 0-5v-3l-9 7c-5 1-8 3-10 7-4 3-7 3-10 1a1037 1037 0 0 1-46-39l-4 29-8 35c-3 4-5 9-6 15-8 17-20 31-35 43l-21 9c-13 3-26 4-38 4-34-2-59-17-75-44-1-1-2-2-3-1l-11-25-5-19-7-46-48 40-7-1-2-5c-6-2-10-6-14-9-2 1-2 3 0 5-2 1-2 3-3 5l-1 14 3 3-3 1v7c3 2 3 3 0 3-1 2-1 4 1 6l-2 2v8c-4 4-5 9-5 15a212 212 0 0 1-1 35l-1-2-2 4-3-6-2-2c2-3 3-7 2-10l2-7-2-2c2-3 2-5 0-7l1-6h-4c0-2 1-3 3-4l-4-1 2-5-3-1c2-2 2-4 1-6-1 1-1 2-2 1l1-8-2 3c-1-3-1-5 1-7l-2-2c2-4 2-7 0-8 0-2 1-4 3-5l-3-2 2-6h-3c-1-2 0-4 2-5l-3-1c1-1 2-3 1-4l-6 1-3 3-1-1 1-5 2 2c5-5 11-8 17-12h4l5-8h1l1 1a3911 3911 0 0 0 1 5h11c-4 0-7 1-10 3l7 4 8-3c7 0 13-1 20-4 11-7 22-16 31-25l3-5-1-3-1 1v-4h-34v-3c13-1 27 0 41 1l4-21-51-8-1 4c-4 3-8 8-11 13-1-1-3-2-4-1l-3-8-7-11c-1-2-2-4-1-5l-4-1 34-27v-4c2 2 3 2 4-1l1 1c4-5 4-4 2 1l1 1 3-1c5 6 12 11 20 16Z" style="opacity:1"/><path fill="#65231b" d="m323 479 7 9h-1l-6-9Z" style="opacity:1"/><path fill="#a04e3c" d="m332 457 2 7a635 635 0 0 0-2-7Z" style="opacity:1"/><path fill="#9d341d" d="M315 449Z" style="opacity:1"/><path fill="#9d2414" d="m332 426 2 38-2-7v-31Z" style="opacity:1"/><path fill="#993d2a" d="M312 421Z" style="opacity:1"/><path fill="#9f2612" d="m311 361-1 14a1591 1591 0 0 1 1-14Z" style="opacity:1"/><path fill="#a93218" d="M461 362c2 17 2 35 1 54-3-16-3-31-1-46l-1-3-1 4-1-7 3-2Z" style="opacity:1"/><path fill="#a74120" d="M285 362Z" style="opacity:1"/><path fill="#dae3e4" d="M482 342c1 0 2 2 1 4-1-2-2-3-1-4Z" style="opacity:1"/><path fill="#df3c14" d="m445 334 1 1a33924 33924 0 0 1-1-1Z" style="opacity:1"/><path fill="#d9e5e3" d="M398 324c-11-1-21 0-31 1h-37v47a1104 1104 0 0 1-1-48c23-2 46-2 69 0Z" style="opacity:1"/><path fill="#942c15" d="m461 362-3 2 1 7 1-4 1 3c-2 15-2 30 1 46l-8 45-6 17a1357 1357 0 0 1-3-144l3-5c1-1 2-1 4 1l9 32Z" style="opacity:1"/><path fill="#cf3e1a" d="M338 325h1l49 2a6558 6558 0 0 1-1 182l1 1-4 2c-4-1-9-2-13-1-15-3-27-9-36-20v-1a635 635 0 0 1-3-64c-1-18-2-36-1-54v-46l7-1Z" style="opacity:1"/><path fill="#7c1b0b" d="m338 325-7 1v46h-1v-47h8Z" style="opacity:1"/><path fill="#cbd6ca" d="M329 324a1442 1442 0 0 0 1 48h1c-1 18 0 36 1 54v31l3 33v1l-5-3-7-9a6521 6521 0 0 0-8-30v-3l-3-25a1591 1591 0 0 0-1-60 235 235 0 0 0 8-36l-2-2c3-2 7-2 11-1l1 2Z" style="opacity:1"/><path fill="#cf401b" d="M302 326h16v5a235 235 0 0 1-9 32c-1 19 0 38 3 58v17c0 3 1 5 3 8v3c-1 7 1 15 5 22 2 2 3 4 3 8l6 9 1 1c-10-2-17-6-23-13-7-12-13-24-17-36a225 225 0 0 1-5-78c1-13 6-24 13-34 1-2 2-2 4-2Z" style="opacity:1"/><path fill="#8f2915" d="m440 324 2 163-3 6a68 68 0 0 1-41 18c-10 2-19 2-27 0 4-1 9 0 13 1l4-2-1-1 1-20V327l-49-2h28l73-1Z" style="opacity:1"/><path fill="#8d4430" d="M302 326v-1h17l-1 6v-5h-16Z" style="opacity:1"/><path fill="#7c7b78" d="M485 320h2c-1 1-2 2-1 4h-28l6-2-4-1 25-1Z" style="opacity:1"/><path fill="#d16541" d="M441 324h-1a2235 2235 0 0 1-41-1l2-2h23c6 0 11 1 17 3Z" style="opacity:1"/><path fill="#c1e0e1" d="m277 313 4 5 4 2c38-1 76-2 115-1v1c-1 0-2 1-1 3l-1 1a599 599 0 0 0-79 1h-40l-1 4-13-11c6 4 10 3 12-5Z" style="opacity:1"/><path fill="#af6e56" d="M400 320a7186 7186 0 0 0 64 2l-6 2h-17c-6-2-11-3-17-3h-23l-2 2c-1-2 0-3 1-3Z" style="opacity:1"/><path fill="#e8c1aa" d="M400 320v-1a3974 3974 0 0 0 0 1Z" style="opacity:1"/><path fill="#2f3d41" d="M237 308c3-1 6 0 9 2 9 6 19 12 28 20-9 5-18 8-27 9-12-2-22-6-32-10-1-3-1-4 2-6l20-15Z" style="opacity:1"/><path fill="#253336" d="m190 517 3 6 2-4 1 2 1-4 1 9v5l-6-1-4 12-7 1c0-3-1-4-2-2-2-3-1-5 2-5 0-4 2-7 6-8l1-3v-3l2-5Z" style="opacity:1"/><path fill="#0b0f12" d="M315 603c0 2 2 4 4 6v5l-1-1c-10-9-17-18-22-29l-3-3c-3-10-6-18-11-26 0-4-1-7-3-10 1-3-1-6-4-6v-6l-8-20c4-10 6-19 7-29l5-8c9 9 17 19 24 31l-6 19c-4 5-7 11-10 18 0 3 1 6 4 9l-2 2 5 4-2 3 6 5-4 1c0 4 3 6 7 6-4 2-4 5 0 7l1 5c1-1 2 0 4 1l2 7c1 3 4 6 7 9Z" style="opacity:1"/><path fill="#c8d3d5" d="m188 525-1 3c-4 1-6 4-6 8-3 0-4 2-2 5 1-2 2-1 2 2l-3 1c-2-3-2-5-1-7l9-13 2 1Z" style="opacity:1"/><path fill="#cfd8d9" d="M592 534c2 1 4 2 5 5-3-1-5-3-5-5Z" style="opacity:1"/><path fill="#b2e0e2" d="M170 544c4 0 4 2 0 4h-4c1-2 2-4 4-4Z" style="opacity:1"/><path fill="#abdce1" d="M159 548h5c-1 3-3 4-6 4-1-2 0-3 1-4Z" style="opacity:1"/><path fill="#99c1c3" d="m597 539 4 6 2-2c3 2 5 4 9 5l1 4-4-1-14-7-3-4 6 1-1-2Z" style="opacity:1"/><path fill="#b9c8be" d="M576 518v8a178 178 0 0 1-100 80l-2-1v-11h3l-2-3c1-4 3-5 6-3l3-6 2 2 22-11 29-25 23-27c3-3 6-5 10-6l1 1 2-4h-3l4-8c-2-2-3-3-2-5l2-3 3 11-2 4c2 2 2 4 1 7Z" style="opacity:1"/><path fill="#bdcbc1" d="m465 593-4 4v3a348 348 0 0 1-14 14l-29 7-61 2-34-6c0-4-2-7-4-8-2-2-4-4-4-6l-4-9c-1-1-2-2-3-1-1-2 0-3 1-3h3l4 4 1-1 2 3c1-2 1-2 2 0v2h2l9 6h2l6 4 2-1a35046 35046 0 0 0 31 6l21-1 2 2 8-4c5 1 9 0 13-3l1 1 8-3 14-2 2-2c3 1 5 1 7-1 2 1 4 1 7-1-4-3-3-6 2-7 0-4 1-4 4-2-1 1-2 2-1 3 1-2 2-2 4 0Z" style="opacity:1"/><path fill="#a5c3bc" d="m466 600 7 5-6 6-13 5 1-3 11-13Z" style="opacity:1"/><path fill="#cee3df" d="M452 610v1l-4 4-32 8a582 582 0 0 1 2-2l29-7 4-5 1 1Z" style="opacity:1"/></svg>