<svg width="80" height="80" xmlns="http://www.w3.org/2000/svg">
    <g>
        <path id="svg_1"
              d="M 74.6272 22.6872 L 62.4648 22.6872 C 60.512 19.3008 57.8192 16.4 54.5872 14.2032 L 61.6416 7.1488 L 55.5392 1.0448 L 46.1464 10.4376 C 44.1552 9.9616 42.1208 9.7016 40.0008 9.7016 C 37.88 9.7016 35.8464 9.9616 33.8984 10.4376 L 24.4624 1.0448 L 18.3592 7.1488 L 25.3712 14.2032 C 22.1672 16.4104 19.484 19.3104 17.536 22.6872 L 5.3736 22.6872 L 5.3736 31.3432 L 14.42 31.3432 C 14.204 32.772 14.0312 34.2 14.0312 35.6712 L 14.0312 40 L 5.3736 40 L 5.3736 48.656 L 14.0312 48.656 L 14.0312 52.9848 C 14.0312 54.4568 14.204 55.8848 14.42 57.3128 L 5.3736 57.3128 L 5.3736 65.9688 L 17.536 65.9688 C 22.0384 73.7168 30.392 78.9552 40.0008 78.9552 C 49.6096 78.9552 57.9632 73.7168 62.4648 65.9688 L 74.6272 65.9688 L 74.6272 57.3128 L 65.5808 57.3128 C 65.7968 55.8848 65.9696 54.4568 65.9696 52.9848 L 65.9696 48.656 L 74.6272 48.656 L 74.6272 40 L 65.9696 40 L 65.9696 35.6712 C 65.9696 34.2 65.7968 32.772 65.5808 31.3432 L 74.6272 31.3432 L 74.6272 22.6872 Z M 48.6568 57.3128 L 31.344 57.3128 L 31.344 48.656 L 48.6568 48.656 L 48.6568 57.3128 Z M 48.6568 40 L 31.344 40 L 31.344 31.3432 L 48.6568 31.3432 L 48.6568 40 Z"
              fill-rule="evenodd" fill-opacity="0.7" fill="#62B543"/>
    </g>
    <g>
        <rect x="49" y="48" width="27" height="28"
              fill="white"/>
        <path id="svg_2"
              fill="#808080"
              d="M 79.5122 51.4319 l -6.144 -6.144 C 73.1834 45.1036 72.9332 45 72.6722 45 H 45.9839 C 45.4402 45 45 45.4402 45 45.9839 v 32.8322 C 45 79.3598 45.4402 79.8 45.9839 79.8 h 32.8322 c 0.5437 0 0.9839 -0.4402 0.9839 -0.9839 V 52.1276 C 79.8 51.8665 79.6962 51.6166 79.5122 51.4319 z M 49.6147 49.1614 c 0 -0.3914 0.3181 -0.7099 0.71 -0.7099 h 19.317 c 0.3924 0 0.7102 0.3185 0.7102 0.7099 v 9.3988 c 0 0.3923 -0.3176 0.7098 -0.7102 0.7098 H 50.3248 c -0.3919 0 -0.71 -0.3175 -0.71 -0.7098 V 49.1614 z M 75.1853 74.7016 c 0 0.4836 -0.3924 0.8758 -0.8755 0.8758 H 50.4902 c -0.4831 0 -0.8755 -0.3922 -0.8755 -0.8758 V 63.1128 c 0 -0.4834 0.3924 -0.8754 0.8755 -0.8754 h 23.8195 c 0.4831 0 0.8755 0.392 0.8755 0.8754 V 74.7016 z"
        />
        <rect x="65.828" y="49.685" width="2.951" height="8.352"
              fill="#808080"/>
        <rect x="52.139" y="65.957" width="20.523" height="0.983"
              fill="#808080"/>
        <rect x="52.139" y="70.874" width="20.523" height="0.983"
              fill="#808080"/>
    </g>
</svg>
