<svg width="80" height="80" xmlns="http://www.w3.org/2000/svg">
    <g>
        <path id="svg_1"
              d="M 60.7763 29.6123 L 53.4789 29.6123 C 52.3072 27.5805 50.6915 25.84 48.7523 24.5219 L 52.985 20.2893 L 49.3235 16.6269 L 43.6878 22.2626 C 42.4931 21.977 41.2725 21.821 40.0005 21.821 C 38.728 21.821 37.5078 21.977 36.339 22.2626 L 30.6774 16.6269 L 27.0155 20.2893 L 31.2227 24.5219 C 29.3003 25.8462 27.6904 27.5862 26.5216 29.6123 L 19.2242 29.6123 L 19.2242 34.8059 L 24.652 34.8059 C 24.5224 35.6632 24.4187 36.52 24.4187 37.4027 L 24.4187 40 L 19.2242 40 L 19.2242 45.1936 L 24.4187 45.1936 L 24.4187 47.7909 C 24.4187 48.6741 24.5224 49.5309 24.652 50.3877 L 19.2242 50.3877 L 19.2242 55.5813 L 26.5216 55.5813 C 29.223 60.2301 34.2352 63.3731 40.0005 63.3731 C 45.7658 63.3731 50.7779 60.2301 53.4789 55.5813 L 60.7763 55.5813 L 60.7763 50.3877 L 55.3485 50.3877 C 55.4781 49.5309 55.5818 48.6741 55.5818 47.7909 L 55.5818 45.1936 L 60.7763 45.1936 L 60.7763 40 L 55.5818 40 L 55.5818 37.4027 C 55.5818 36.52 55.4781 35.6632 55.3485 34.8059 L 60.7763 34.8059 L 60.7763 29.6123 Z M 45.1941 50.3877 L 34.8064 50.3877 L 34.8064 45.1936 L 45.1941 45.1936 L 45.1941 50.3877 Z M 45.1941 40 L 34.8064 40 L 34.8064 34.8059 L 45.1941 34.8059 L 45.1941 40 Z"
              fill-rule="evenodd" fill-opacity="0.7" fill="#62B543"/>
    </g>
    <g>
        <path d="M 12.307 19.5739 C 12.307 15.892 14.4484 12.9073 17.0901 12.9073 C 18.9311 12.9073 20.0817 10.1295 19.1612 7.9073 C 18.734 6.8759 17.9445 6.2406 17.0901 6.2406 C 11.8068 6.2406 7.5239 12.2102 7.5239 19.5739 L 7.5239 29.5739 C 7.5239 33.2559 5.3824 36.2406 2.7409 36.2406 C 0.8998 36.2406 -0.2509 39.0184 0.6697 41.2406 C 1.0969 42.272 1.8863 42.9073 2.7409 42.9073 C 5.3824 42.9073 7.5239 45.892 7.5239 49.5739 L 7.5239 59.5739 C 7.5239 66.9377 11.8068 72.9073 17.0901 72.9073 C 18.9311 72.9073 20.0817 70.1295 19.1612 67.9073 C 18.734 66.8759 17.9445 66.2406 17.0901 66.2406 C 14.4484 66.2406 12.307 63.2559 12.307 59.5739 L 12.307 49.5739 C 12.2914 45.7337 11.0887 42.0893 9.0066 39.5739 C 11.0887 37.0586 12.2914 33.4141 12.307 29.5739 L 12.307 19.5739 Z M 77.2593 36.2407 C 74.6177 36.2407 72.4763 33.2559 72.4763 29.574 L 72.4763 19.574 C 72.4763 12.2102 68.1934 6.2407 62.9101 6.2407 C 61.0691 6.2407 59.9184 9.0184 60.839 11.2407 C 61.2662 12.272 62.0556 12.9073 62.9101 12.9073 C 65.5517 12.9073 67.6931 15.8921 67.6931 19.574 L 67.6931 29.574 C 67.7088 33.4142 68.9115 37.0587 70.9934 39.574 C 68.9115 42.0894 67.7088 45.7338 67.6931 49.574 L 67.6931 59.574 C 67.6931 63.2559 65.5517 66.2407 62.9101 66.2407 C 61.0691 66.2407 59.9184 69.0184 60.839 71.2407 C 61.2662 72.272 62.0556 72.9073 62.9101 72.9073 C 68.1934 72.9073 72.4763 66.9378 72.4763 59.574 L 72.4763 49.574 C 72.4763 45.8921 74.6177 42.9073 77.2593 42.9073 C 79.1003 42.9073 80.2509 40.1296 79.3304 37.9073 C 78.9033 36.876 78.1137 36.2407 77.2593 36.2407 Z"
              fill="orange" fill-rule="evenodd" fill-opacity="0.7"/>
    </g>
</svg>